<?xml version="1.0" encoding="UTF-8"?>
<svg width="1200" height="675" viewBox="0 0 1200 675" xmlns="http://www.w3.org/2000/svg">
  <defs>
    <linearGradient id="bg" x1="0" y1="0" x2="0" y2="1">
      <stop offset="0" stop-color="#0a0a0a"/><stop offset="1" stop-color="#000"/>
    </linearGradient>
    <linearGradient id="floor" x1="0" y1="0" x2="0" y2="1">
      <stop offset="0" stop-color="#0d0d0d"/><stop offset="1" stop-color="#050505"/>
    </linearGradient>
    <filter id="soft"><feGaussianBlur stdDeviation="8"/></filter>
  </defs>
  <rect width="1200" height="675" fill="url(#bg)"/>
  <path d="M180 160 Q600 40 1020 160 V430 Q600 520 180 430 Z" fill="#050505" stroke="#ffffff" stroke-opacity="0.10" stroke-width="2"/>
  <g opacity="0.7">
    <rect x="230" y="190" width="740" height="10" rx="5" fill="#ff2a2a" opacity="0.35"/>
    <rect x="260" y="220" width="680" height="8" rx="4" fill="#ff2a2a" opacity="0.25"/>
  </g>
  <rect x="0" y="430" width="1200" height="245" fill="url(#floor)"/>
  <g stroke="#ffffff" stroke-opacity="0.08">
    <path d="M0 520 H1200"/><path d="M0 585 H1200"/><path d="M0 640 H1200"/>
    <path d="M200 430 L450 675"/><path d="M1000 430 L750 675"/><path d="M600 430 V675"/>
  </g>
  <g fill="#0b0b0b" stroke="#ffffff" stroke-opacity="0.06">
    <path d="M560 300 h80 l30 20 h-140 z"/><path d="M520 330 h160 l20 14 h-200 z"/>
  </g>
  <ellipse cx="600" cy="210" rx="360" ry="120" fill="#ff2a2a" opacity="0.09" filter="url(#soft)"/>
</svg>
