<?xml version="1.0" encoding="UTF-8"?>
<svg width="1200" height="675" viewBox="0 0 1200 675" xmlns="http://www.w3.org/2000/svg">
  <defs>
    <linearGradient id="bg" x1="0" y1="0" x2="0" y2="1">
      <stop offset="0" stop-color="#0b0b0b"/><stop offset="1" stop-color="#000000"/>
    </linearGradient>
    <linearGradient id="red" x1="0" y1="0" x2="1" y2="0">
      <stop offset="0" stop-color="#8b0000"/><stop offset="1" stop-color="#ff2a2a"/>
    </linearGradient>
    <filter id="soft"><feGaussianBlur stdDeviation="6"/></filter>
  </defs>
  <rect width="1200" height="675" fill="url(#bg)"/>
  <rect x="180" y="80" width="840" height="320" rx="18" fill="#060606" stroke="#ffffff" stroke-opacity="0.10"/>
  <g opacity="0.5">
    <circle cx="260" cy="160" r="2" fill="#fff"/><circle cx="410" cy="210" r="1.6" fill="#fff"/>
    <circle cx="700" cy="140" r="2" fill="#fff"/><circle cx="820" cy="240" r="1.6" fill="#fff"/>
    <circle cx="950" cy="180" r="2" fill="#fff"/>
  </g>
  <rect x="90" y="420" width="1020" height="170" rx="22" fill="#070707" stroke="#ffffff" stroke-opacity="0.10"/>
  <rect x="120" y="450" width="280" height="40" rx="12" fill="#0f0f0f" stroke="#ffffff" stroke-opacity="0.08"/>
  <rect x="420" y="450" width="320" height="40" rx="12" fill="#0f0f0f" stroke="#ffffff" stroke-opacity="0.08"/>
  <rect x="760" y="450" width="310" height="40" rx="12" fill="#0f0f0f" stroke="#ffffff" stroke-opacity="0.08"/>
  <rect x="120" y="505" width="950" height="10" rx="5" fill="url(#red)" opacity="0.85"/>
  <rect x="120" y="532" width="720" height="8" rx="4" fill="url(#red)" opacity="0.55"/>
  <ellipse cx="600" cy="495" rx="420" ry="120" fill="#ff2a2a" opacity="0.10" filter="url(#soft)"/>
</svg>
